<?xml version="1.0" standalone="no"?>
<!DOCTYPE svg PUBLIC "-//W3C//DTD SVG 20010904//EN"
 "http://www.w3.org/TR/2001/REC-SVG-20010904/DTD/svg10.dtd">
<svg version="1.0" xmlns="http://www.w3.org/2000/svg"
 width="512.000000pt" height="512.000000pt" viewBox="0 0 512.000000 512.000000"
 preserveAspectRatio="xMidYMid meet">
<metadata>
Created by potrace 1.14, written by Peter Selinger 2001-2017
</metadata>
<g transform="translate(0.000000,512.000000) scale(0.100000,-0.100000)"
fill="#000000" stroke="none">
<path d="M953 5101 c-107 -39 -191 -126 -223 -231 -11 -37 -14 -424 -15 -2285
0 -1232 3 -2264 7 -2293 5 -30 19 -75 32 -101 27 -52 95 -125 137 -146 89 -47
15 -45 1664 -45 1636 0 1586 -1 1671 43 38 20 100 80 128 125 52 86 50 -42 51
2372 0 1235 -3 2267 -8 2294 -19 108 -95 207 -197 255 l-55 26 -1570 2 c-1515
2 -1572 2 -1622 -16z m637 -554 c0 -2 39 -118 86 -258 48 -140 90 -266 94
-281 l8 -27 -56 2 -57 2 -18 58 c-20 63 -10 59 -133 60 -78 0 -90 -5 -98 -40
-18 -74 -23 -80 -82 -81 -29 0 -54 3 -54 7 0 6 160 480 185 549 3 8 26 12 65
12 33 0 60 -2 60 -3z m1250 -1289 c146 -193 270 -356 275 -362 6 -6 22 -27 35
-46 13 -19 27 -37 30 -40 3 -3 25 -32 50 -65 25 -33 47 -62 50 -65 3 -3 22
-28 43 -56 l37 -52 -105 -138 c-58 -77 -111 -146 -118 -154 -6 -9 -46 -61 -87
-115 -41 -55 -77 -102 -80 -105 -3 -3 -17 -21 -30 -40 -13 -19 -27 -37 -30
-40 -3 -3 -48 -61 -100 -130 -217 -287 -244 -320 -250 -313 -4 4 -47 60 -95
123 -202 267 -458 603 -572 752 -122 159 -123 161 -105 184 94 125 515 678
679 892 52 67 97 122 101 121 4 0 126 -158 272 -351z m847 -2188 c12 -36 55
-163 96 -282 l74 -218 -58 0 -58 0 -18 60 -17 60 -101 0 -100 0 -18 -60 -17
-60 -59 0 -58 0 39 113 c21 61 62 180 90 262 28 83 54 159 59 171 6 18 15 20
66 20 l58 -1 22 -65z"/>
<path d="M1510 4364 c-7 -27 -14 -51 -15 -54 0 -3 -9 -29 -19 -58 -10 -29 -16
-55 -13 -58 2 -3 34 -4 69 -2 l65 3 -24 80 c-13 44 -30 93 -37 109 l-13 30
-13 -50z"/>
<path d="M3572 898 c-17 -58 -32 -109 -32 -114 0 -5 29 -9 65 -10 77 0 76 -7
32 130 l-32 99 -33 -105z"/>
</g>
</svg>
